<?xml version="1.0" encoding="utf-8"?>
<!-- Generator: Adobe Illustrator 26.3.1, SVG Export Plug-In . SVG Version: 6.00 Build 0)  -->
<svg version="1.1" id="Слой_1" xmlns="http://www.w3.org/2000/svg" xmlns:xlink="http://www.w3.org/1999/xlink" x="0px" y="0px"
	 viewBox="0 0 168 49" style="enable-background:new 0 0 168 49;" xml:space="preserve">
<style type="text/css">
	.st0{fill-rule:evenodd;clip-rule:evenodd;fill:#10C0E7;}
</style>
<g>
	<g>
		<path d="M104.6,29c-0.9,0-1.8,0-2.8,0c0-4.6,0-9.9,0-14.6c-0.1,0.1-4.5,6.2-6.8,9.4c-2.5-2.9-4.3-6-6.7-8.8c0,4.6,0,9.2,0,13.9
			c-1.1,0-1.9,0-2.9,0c0-6.2,0-12.4,0-18.6c1.1,0,2.2,0,3.4,0c2,2.8,4,5.7,6.2,8.8c2.1-3,4.2-5.9,6.2-8.8c1.1,0,2.2,0,3.4,0
			C104.6,16.6,104.6,22.7,104.6,29z"/>
		<path d="M70.1,9.9c5.9-0.2,9.8,4.6,9.5,10.3c-0.3,5.1-3.5,9.4-9.9,9.3c-5.5-0.1-9.4-4.2-9.3-9.9C60.4,13.8,64.4,9.9,70.1,9.9z
			 M70,12.6c-4.1,0-6.7,2.7-6.7,7.1c0,4.2,2.7,7.1,6.7,7.1c4.1,0,6.6-2.7,6.6-6.9C76.6,15.5,74,12.6,70,12.6z"/>
		<path d="M149.1,29c-1.1,0-2,0-3.1,0c-0.6-1.2-1.2-2.5-1.8-3.8c-3.4,0-6.8,0-10.3,0c-0.6,1.3-1.2,2.6-1.8,3.8c-1,0-1.9,0-3.1,0
			c2.8-6.3,5.6-12.5,8.4-18.7c1.1,0,2.2,0,3.3,0C143.5,16.5,146.3,22.7,149.1,29z M143.1,22.4c-1.3-3-2.6-5.9-4-9.1
			c-1.4,3.2-2.7,6-4,9.1C137.8,22.4,140.4,22.4,143.1,22.4z"/>
		<path d="M152.1,25.3c0.7-0.5,1.4-0.9,2.1-1.4c2.1,3,5,3.6,8.2,2.7c0.8-0.2,1.7-0.9,2.2-1.7c0.8-1.2,0.3-2.7-1-3.3
			c-1.3-0.5-2.8-0.8-4.2-1.1c-1.3-0.4-2.7-0.6-4-1.1c-3-1.4-3.6-5.5-1.1-7.7c2.8-2.6,9.7-2.7,12.3,0.7c0.1,0.1,0.2,0.3,0.4,0.6
			c-0.7,0.5-1.4,1-2.1,1.4c-2.2-2-4.6-2.5-7.3-1.6c-0.9,0.3-1.7,0.9-1.9,2c-0.2,1.4,0.5,2.3,2.2,2.7c1.8,0.4,3.5,0.6,5.3,1.1
			c1.8,0.5,3.6,1.3,4.3,3.3c1,2.9-0.2,5.8-3.2,7c-3.1,1.2-6.2,1.1-9.2-0.3C153.9,27.8,152.9,26.7,152.1,25.3z"/>
		<path d="M114.6,23.3c0,2,0,3.9,0,5.7c-1,0-1.9,0-2.8,0c0-6.2,0-12.5,0-18.7c0.3,0,0.6,0,0.8,0c2.6,0,5.2-0.1,7.8,0
			c4.9,0.1,7.7,3.7,6.5,8.5c-0.6,2.3-2.6,4.2-5.1,4.4c-1.9,0.2-3.7,0.1-5.6,0.2C115.7,23.3,115.3,23.3,114.6,23.3z M114.7,20.5
			c2.2,0,4.2,0,6.2,0c1.8-0.1,3.1-1.4,3.2-3.1c0.2-2.1-0.7-4-2.5-4.2c-2.3-0.3-4.6-0.1-6.9-0.1C114.7,15.5,114.7,18,114.7,20.5z"/>
		<path d="M45.1,20.7c0,2.9,0,5.6,0,8.4c-1,0-1.9,0-2.9,0c0-6.3,0-12.6,0-19c0.9,0,1.8,0,2.8,0c0,2.6,0,5.7,0,8.3
			c0.1-0.2,5.4-5.7,7.9-8.4c1.2,0,2.3,0,3.8,0c-3,3.2-5.9,6.1-8.8,9.2c3.2,3.3,6.3,6.5,9.6,9.8c-1.4,0-2.6,0-3.7,0
			C51,26.3,48.1,23.6,45.1,20.7z"/>
	</g>
	<g>
		<path d="M43.6,34.8h-1.5v-0.4h3.4v0.4H44v3.9h-0.5V34.8z"/>
		<path d="M48.6,36.5c0-1.2,0.9-2.2,2.2-2.2c1.3,0,2.2,0.9,2.2,2.2c0,1.2-1,2.2-2.2,2.2C49.5,38.7,48.6,37.8,48.6,36.5z M52.6,36.5
			c0-1-0.8-1.8-1.8-1.8c-1,0-1.8,0.7-1.8,1.8s0.8,1.8,1.8,1.8C51.8,38.3,52.6,37.5,52.6,36.5z"/>
		<path d="M56.8,36.8v-2.4h0.5v2.4c0,1,0.5,1.5,1.3,1.5c0.8,0,1.3-0.5,1.3-1.5v-2.4h0.4v2.4c0,1.2-0.7,1.9-1.7,1.9
			C57.5,38.7,56.8,38,56.8,36.8z"/>
		<path d="M67.4,38.6l-1-1.4c-0.1,0-0.2,0-0.3,0h-1.1v1.4h-0.5v-4.3h1.6c1.1,0,1.7,0.5,1.7,1.5c0,0.7-0.4,1.1-1,1.3l1,1.5H67.4z
			 M67.4,35.8c0-0.7-0.5-1.1-1.3-1.1h-1.1v2.1h1.1C66.9,36.9,67.4,36.5,67.4,35.8z"/>
		<path d="M71.3,36.5c0-1.2,0.9-2.2,2.2-2.2c1.3,0,2.2,0.9,2.2,2.2c0,1.2-1,2.2-2.2,2.2C72.3,38.7,71.3,37.8,71.3,36.5z M75.3,36.5
			c0-1-0.8-1.8-1.8-1.8c-1,0-1.8,0.7-1.8,1.8s0.8,1.8,1.8,1.8C74.6,38.3,75.3,37.5,75.3,36.5z"/>
		<path d="M82.9,35.8c0,0.9-0.7,1.5-1.7,1.5h-1.1v1.3h-0.5v-4.3h1.6C82.3,34.4,82.9,34.9,82.9,35.8z M82.5,35.8
			c0-0.7-0.5-1.1-1.3-1.1h-1.1v2.1h1.1C82,36.9,82.5,36.5,82.5,35.8z"/>
		<path d="M89.7,38.3v0.4h-3v-4.3h2.9v0.4h-2.5v1.5h2.2v0.4h-2.2v1.6H89.7z"/>
		<path d="M96.5,38.6l-1-1.4c-0.1,0-0.2,0-0.3,0H94v1.4h-0.5v-4.3h1.6c1.1,0,1.7,0.5,1.7,1.5c0,0.7-0.4,1.1-1,1.3l1,1.5H96.5z
			 M96.5,35.8c0-0.7-0.5-1.1-1.3-1.1H94v2.1h1.1C96,36.9,96.5,36.5,96.5,35.8z"/>
		<path d="M103.5,37.5h-2.4l-0.5,1.1h-0.5l1.9-4.3h0.4l1.9,4.3H104L103.5,37.5z M103.3,37.1l-1-2.3l-1,2.3H103.3z"/>
		<path d="M108.6,34.8h-1.5v-0.4h3.4v0.4H109v3.9h-0.5V34.8z"/>
		<path d="M113.6,36.5c0-1.2,0.9-2.2,2.2-2.2c1.3,0,2.2,0.9,2.2,2.2c0,1.2-1,2.2-2.2,2.2C114.5,38.7,113.6,37.8,113.6,36.5z
			 M117.6,36.5c0-1-0.8-1.8-1.8-1.8c-1,0-1.8,0.7-1.8,1.8s0.8,1.8,1.8,1.8C116.9,38.3,117.6,37.5,117.6,36.5z"/>
		<path d="M124.8,38.6l-1-1.4c-0.1,0-0.2,0-0.3,0h-1.1v1.4h-0.5v-4.3h1.6c1.1,0,1.7,0.5,1.7,1.5c0,0.7-0.4,1.1-1,1.3l1,1.5H124.8z
			 M124.8,35.8c0-0.7-0.5-1.1-1.3-1.1h-1.1v2.1h1.1C124.3,36.9,124.8,36.5,124.8,35.8z"/>
	</g>
	<g>
		<path class="st0" d="M19.2,20.8c0.7,0.8,1.2,1.9,1.4,3.1L17,23.5L19.2,20.8z M15.6,19c1.2,0.1,2.2,0.6,3.1,1.4L16,22.5L15.6,19z
			 M20.9,23.9c-0.1-1.3-0.7-2.4-1.5-3.3l1.3-1.7L19,20.1c-0.9-0.8-2.1-1.4-3.4-1.5L15.1,13c6.3,0,11.4,5.2,11.5,11.5L20.9,23.9z
			 M17.7,9.5H30V21c0,1.7-1.2,3.1-2.8,3.4c0-6.7-5.5-12.1-12.2-12.1v-0.1C15,10.7,16.2,9.5,17.7,9.5z"/>
		<path class="st0" d="M10.8,20.8c-0.7,0.8-1.2,1.9-1.4,3.1l3.5-0.3L10.8,20.8z M14.4,19c-1.2,0.1-2.2,0.6-3.1,1.4l2.7,2.1L14.4,19z
			 M9.1,23.9c0.1-1.3,0.7-2.4,1.5-3.3l-1.4-1.8l1.8,1.4c0.9-0.8,2.1-1.4,3.4-1.5l0.6-5.7C8.6,13,3.5,18.1,3.5,24.4L9.1,23.9z
			 M12.1,9.5h-12c0,0-0.1,0-0.1,0.1V21c0,1.7,1.2,3.1,2.8,3.4c0-6.7,5.5-12.1,12.2-12.1C14.9,10.8,13.7,9.5,12.1,9.5z"/>
		<path class="st0" d="M10.8,28.2c-0.7-0.8-1.2-1.9-1.4-3.1l3.5,0.4L10.8,28.2z M14.4,30c-1.2-0.1-2.2-0.6-3.1-1.4l2.7-2.1L14.4,30z
			 M9.1,25.1c0.1,1.3,0.7,2.4,1.5,3.3l-1.3,1.7l1.7-1.3c0.9,0.8,2.1,1.4,3.4,1.5l0.6,5.7C8.6,36,3.5,30.9,3.5,24.6L9.1,25.1z
			 M11.5,39.5H0V28c0-1.7,1.2-3.1,2.8-3.4c0,6.7,5.4,12.1,12.1,12.1C14.6,38.3,13.2,39.5,11.5,39.5z"/>
		<path class="st0" d="M19.2,28.2c0.7-0.8,1.2-1.9,1.4-3.1l-3.5,0.3L19.2,28.2z M15.6,30c1.2-0.1,2.2-0.6,3.1-1.4L16,26.5L15.6,30z
			 M20.9,25.1c-0.1,1.3-0.7,2.4-1.5,3.3l1.4,1.8L19,28.9c-0.9,0.8-2.1,1.4-3.4,1.5L15.1,36c6.3,0,11.4-5.2,11.5-11.5L20.9,25.1z
			 M18.5,39.5H30V28c0-1.7-1.2-3.1-2.8-3.4c0,6.7-5.4,12.1-12.1,12.1C15.4,38.3,16.8,39.5,18.5,39.5z"/>
	</g>
</g>
</svg>
