<?xml version="1.0" encoding="utf-8"?>
<!-- Generator: Adobe Illustrator 21.0.2, SVG Export Plug-In . SVG Version: 6.00 Build 0)  -->
<svg version="1.1" id="Layer_1" xmlns="http://www.w3.org/2000/svg" xmlns:xlink="http://www.w3.org/1999/xlink" x="0px" y="0px"
	 viewBox="0 0 833.1 420.8" style="enable-background:new 0 0 833.1 420.8;" xml:space="preserve">
<style type="text/css">
	.st0{fill:#1A4396;}
</style>
<g>
	<path class="st0" d="M503.1,363.4c-0.3-8.1-2.8-11.4-12.6-11.4c-12.2,0-12.5,5.4-12.5,14.2v18.1c0,7.9,0.4,13.8,12.5,13.8
		c10.7,0,12.8-4.3,12.8-12.7v-8.1h-12.8v-3h16v11.1c0,10.6-2.9,16-16.1,16c-13.2,0-16.1-5.4-16.1-17.2v-18
		c0-12.1,2.7-17.2,16.1-17.2c12.3,0,15.6,4.6,15.9,14.4L503.1,363.4z"/>
	<path class="st0" d="M574.7,381.9l11.8,19.1H582l-11.4-19h-8.1v19h-3.8v-51.5h13.4c9.1,0,13.3,3.2,13.3,15.1v3.9
		C585.4,378,582,381.3,574.7,381.9z M572.1,378.8c7.8,0,9.7-2.2,9.7-10.4v-3.9c0-8.4-1.4-11.7-9.7-11.7h-9.6v26H572.1z"/>
	<path class="st0" d="M628.4,384.5v-18.6c0-11.8,2.7-17,16.1-17c13.4,0,16.1,5.1,16.1,17v18.5c0,11.6-3,17-16.1,17
		C631.4,401.5,628.4,396.1,628.4,384.5z M632,366.1v18.2c0,8.3,0.4,14.1,12.5,14.1c12.2,0,12.5-5.6,12.5-14.1v-18.2
		c0-8.7-0.4-14.1-12.5-14.1S632,357.1,632,366.1z"/>
	<path class="st0" d="M735.7,349.5v34.8c0,11.4-2.3,16.8-15,16.8s-15-5.4-15-16.8v-34.8h3.7v34.8c0,8.7,0.8,13.8,11.3,13.8
		S732,393,732,384.3v-34.8H735.7z"/>
	<path class="st0" d="M785.5,382.9V401h-3.8v-51.5h13.4c9.1,0,13.3,2.7,13.3,14.4v4.5c0,11.2-4.3,14.6-13.3,14.6h-9.6V382.9z
		 M795.1,379.7c7.8,0,9.7-3.1,9.7-11.3v-4.2c0-8.2-1.4-11.5-9.7-11.5h-9.6v27H795.1z"/>
</g>
<path class="st0" d="M0,220.3c17.3,3,32.8,4.6,49.9,8.6c31.3,7.3,96.9-1.8,192.2,59.2c37.5,24,27.8,9.7,16.8-7.4
	c-2-3.1-2.4-4.1-0.1-5.3l9.1-4.6c10.4-4.1,8.2-8.2-5.8-10.9c-9.7-1.9-3.1-3.8,13.2-7.1c23.4-4.8,17.5-5.9-2.5-13.3
	c38.5-1.7,44.9-1.7,16.4-12.9c30.7,1.3,35.4-1.5,14.4-11.8c7.8-1.2,53.4,11.1,46.6,2.9l-13.9-16.6c14.5,7.1,29.1,14,43.5,21.3
	c13.8,7,19.7,16.9,37.2-6.8c0.7,8.7,0.7,8.3,0,10.6c-1.5,4.6-2.6,4.3-2.7,7.5L414,263c0,3.5,3.6,4,3.6,7l0.1,6.5
	c0,2.6-3.8,5-3.8,9.4l-0.1,8.4l3.2,9.3c-0.3,7.5,4.6,13.4,4.3,18.7c-0.4,6.1-0.6,3.9,0.1,5.3c1.2,2.7,2.2,4.2-1.2,4.2
	c-1.4,0-4.3,0.5-5,1.2c-2.6,2.5-3.9,3.9-6.7,6.3c-3.9,3.5-12.3,1.6-17.2-1.7c-7-4.7-2.4-6.5-3.5-9.8c-10.6-13.6-23.4-25.6-38.6-36.4
	c-3.2-2.3-5.5-0.3-3.3,2.3c16.4,19.4,33.3,53.6,45.7,80.2c13.3,28.5,11.2,46.4-6.9,46.5l-110.6,0.4c-7.2,0-5.7-1.4-4.7-5.7l9.6-41.3
	l-19.1,39.8c-2.7,5.7-5.9,3.9-14.5,1.7c-11.2-2.9-10.2-4.1-7.8-7.9l21.4-34l-30.1,31c-2.5,2.5-4.8,4.2-13.8-0.1
	c-5-2.4-9.7-4.2-6.5-7.1l34.2-30.3c-13.3,7.1-27.1,17.7-39.8,27.3c-3.1,2.3-8.3,0.9-14.4-2.5c-11.5-6.4-8.8-6.4-6.1-8.2l39.1-27.1
	c-14.7,7.3-29.2,15.5-42.7,23.3c-5.9,3.4-12,0.3-18.2-2.6c-11.3-5.3-11.2-7-5.7-9.3l47.9-20.9l-53.4,16.3c-7.8,2.4-15.9-2.5-25.8-12
	c22.4-4.5,44-10.3,64.5-18l-66.7,12.2c-8.4,1.5-16.1-4.6-23.4-13.4c27.1-4.6,53.6-8.9,79-12.4c-24-0.9-50.1,2.2-78.7,7
	c-6.7,1.1-14.8-5-24.2-16.7l92.7-9.5l-94.5,1.8c-8.4,0.2-13.9-4-25-21.7l102.8,0.2c-19.6-3.2-84.1-3.7-92.6-3.4
	c-15.8,0.6-29.6-10.7-33.9-26.6c8.5,1.7,36.2,5.4,45.4,6c43.5,3,47.2,4,86.7,9.1c-18.1-8.7-87.7-13.9-119.8-19.5
	C18.5,243.1,9.1,240,0,220.3z M129.9,0c18,23.9,35.5,39.6,61.1,67.6c38.7,42.5,75.8,68.8,91.1,121.6c0.7,2.4,1.1,10.8,2,14.1
	c1.2,4.5,3,3.9,3.5,5c2.7,5.3,0,6.5,1.7,25.5c-8.4,1.9-18.5,3.1-24.8,6.2c-3.2,1.6,4.1,2.9,11.1,5.1c5.4,1.6,5.1,1.3,0.2,3.5
	c-7.9,3.4-14,5-19.6,5.5c-10.7,0.9-10.2,5.5,7.1,10.1c7.2,1.9,5.7,3.2-7.6,8.6c-4.5,1.8-3,5.7,9.2,24.6
	c-27.4-14.3-46.6-31.5-63.9-57c20.2-0.9,33.8-3.2,37.5-4.8l-38.2-1.6c-4.3-0.2-6.4-1.8-13.1-12.1l42.5,0.1l-39.1-5.1
	c-8.3-1.1-12.8-6.8-22.1-22.6l54.4,10.4L171.6,189c-5.8-1.8-13.3-14.5-16-24.5l62.4,22.7l-61.5-29.8c-5.2-2.5-10.2-10.8-13.4-30.2
	l74.3,39.5l-72.7-47.6c-6.4-4.2-8.9-14.1-10.5-29.5l84.9,59.7l-81.5-67.6c-6.6-5.5-3.9-13-4.9-35.6l93.6,86.7
	c-29.1-30.1-59-60.5-88.4-90.4C129.4,33.9,130.3,25.1,129.9,0z"/>
<g>
	<path class="st0" d="M499.6,218c23.8,0,34.9,8.6,34.9,29.4v9.1c0,20.3-11.5,29.8-34.9,29.8h-6.7v30.1h-18V218H499.6z M499.6,269.3
		c12.8,0,17-4.3,17-13.7v-7.3c0-9.3-3.1-14.2-16.7-14.2h-7.2v35.1h6.9V269.3z"/>
	<path class="st0" d="M605.4,218v15.4h-39v25.3h33.2v15.8h-33.2v25.9h40.8v16.1h-58.4V218H605.4z"/>
	<path class="st0" d="M651.6,260.4h33.1V286c0,21.6-10.2,30.9-33.6,30.9s-32.8-9.3-32.8-30.5v-39.5c0-20.1,9.1-29.4,32.8-29.4
		s33.6,8.3,33.6,29.4h-17.6c0-9.2-2.3-13.8-16-13.8c-12.8,0-15.2,5.8-15.2,14.7v38.6c0,9.3,2.4,14.7,15.2,14.7s17.2-5.4,17.2-15.1
		v-9.6h-16.7V260.4z"/>
	<path class="st0" d="M762.4,316.4h-18.1l-5-17.4h-25.2l-5.2,17.4h-18.1l27.2-98.3h17.5L762.4,316.4z M734.8,281.8l-8.2-36.4
		l-8.2,36.4H734.8z"/>
	<path class="st0" d="M799.8,233c-9.7,0-13.7,3.1-13.7,12.4c0,12.4,9.8,11.4,24.8,13.7c11.4,1.8,22.2,6.4,22.2,26.1
		c0,22.7-9.8,32.3-33.5,32.3c-24.5,0-32.3-11.9-32.3-27.7h17.8c0.4,7.5,3.7,11.6,15,11.6c10.6,0,15.5-4.5,15.5-15.6
		c0-11.6-13.8-11.6-24.3-13c-11.1-1.4-22.9-6.9-22.9-27.2c0-18.4,11.2-28,31.4-28c17.8,0,29.5,6.5,31.2,26.2h-17.8
		C812.7,235.4,808.4,233,799.8,233z"/>
</g>
</svg>
